<?xml version="1.0" encoding="UTF-8"?>
<svg id="Layer_1" data-name="Layer 1" xmlns="http://www.w3.org/2000/svg" version="1.1" viewBox="0 0 442.2 323.3">
  <defs>
    <style>
      .cls-1 {
        fill: #000;
        stroke-width: 0px;
      }
    </style>
  </defs>
  <polygon class="cls-1" points="72.8 140.4 60.1 285.5 102.5 285.5 111.5 182.9 111.5 182.9 115.2 140.4 72.8 140.4"/>
  <polygon class="cls-1" points="124.2 37.7 81.8 37.7 76.2 101.4 118.6 101.4 124.2 37.7"/>
  <polygon class="cls-1" points="318.4 285.6 360.4 285.6 366 221.9 323.9 221.9 318.4 285.6"/>
  <polygon class="cls-1" points="382.1 37.8 340 37.8 329.2 161.7 221.1 161.7 206.9 323.3 292.8 201.8 438.7 201.8 442.2 161.7 371.2 161.7 382.1 37.8"/>
  <polygon class="cls-1" points="149.4 121.5 3.5 121.5 0 161.7 221.1 161.7 235.2 0 149.4 121.5"/>
</svg>